<!DOCTYPE svg PUBLIC "-//W3C//DTD SVG 20010904//EN" "http://www.w3.org/TR/2001/REC-SVG-20010904/DTD/svg10.dtd">
<svg version="1.0" xmlns="http://www.w3.org/2000/svg" width="531px" height="223px" viewBox="0 0 5310 2230" preserveAspectRatio="xMidYMid meet">
<g id="layer1" fill="#696969" stroke="none">
 <path d="M170 2190 c-12 -16 -27 -30 -35 -30 -7 0 -18 -15 -25 -34 -6 -18 -31 -55 -55 -82 -24 -26 -43 -49 -42 -50 1 -2 80 -4 175 -5 l173 -2 36 -41 c30 -35 35 -37 29 -16 -4 14 -12 41 -17 60 -6 19 -11 42 -12 50 -1 8 -4 17 -7 20 -10 9 -30 76 -30 98 0 14 -5 20 -14 16 -8 -3 -17 -1 -20 5 -4 6 -13 8 -21 4 -8 -3 -15 0 -15 6 0 6 -6 8 -14 5 -8 -3 -17 -1 -20 5 -4 6 -13 8 -21 4 -8 -3 -15 0 -15 6 0 22 -29 11 -50 -19z"/>
 <path d="M3866 1936 c-59 -22 -88 -48 -116 -102 -21 -41 -25 -62 -25 -139 1 -101 20 -152 75 -198 78 -66 212 -62 291 10 81 73 95 252 26 354 -47 70 -167 106 -251 75z m125 -102 c39 -20 59 -68 59 -139 0 -92 -40 -145 -110 -145 -69 0 -110 55 -110 151 0 115 75 178 161 133z"/>
 <path d="M4353 1941 c-46 -12 -81 -37 -103 -74 -18 -29 -20 -51 -20 -219 l0 -188 55 0 55 0 0 173 c0 168 1 174 23 195 33 31 95 25 119 -12 4 -6 8 -89 8 -183 l0 -173 56 0 55 0 -3 194 c-3 180 -5 197 -24 223 -12 15 -34 36 -50 45 -35 20 -126 30 -171 19z"/>
 <path d="M1401 1933 c0 -5 37 -111 82 -238 l82 -230 60 -3 60 -3 79 228 c44 125 81 234 84 241 3 9 -12 12 -55 12 l-59 0 -15 -47 -15 -48 -79 0 -79 0 -15 48 -15 47 -58 0 c-32 0 -58 -3 -57 -7z m266 -195 c-2 -7 -12 -39 -21 -70 -9 -32 -18 -58 -20 -58 -5 0 -46 120 -46 132 0 4 21 8 46 8 33 0 45 -4 41 -12z"/>
 <path d="M1900 1700 l0 -240 54 0 53 0 66 123 c101 188 96 186 97 20 l0 -143 50 0 50 0 0 241 0 240 -52 -3 -52 -3 -81 -145 -80 -145 -3 148 -3 147 -49 0 -50 0 0 -240z"/>
 <path d="M2790 1926 c0 -8 35 -115 79 -238 l79 -223 61 -3 c33 -2 61 -1 61 1 0 3 36 108 80 233 44 126 80 232 80 236 0 5 -26 8 -58 8 l-58 0 -13 -50 -13 -51 -81 3 -81 3 -15 48 -15 47 -53 0 c-39 0 -53 -4 -53 -14z m260 -184 c0 -7 -21 -76 -37 -122 -3 -9 -12 5 -23 35 -36 103 -37 95 14 95 25 0 46 -4 46 -8z"/>
 <path d="M4660 1929 c0 -6 29 -58 65 -116 36 -57 65 -110 65 -116 0 -7 -27 -57 -60 -112 -33 -55 -60 -106 -60 -112 0 -9 19 -13 60 -13 l60 0 30 59 c16 33 34 62 39 65 5 4 26 -23 46 -59 l37 -65 59 0 c32 0 59 3 59 6 0 3 -29 55 -65 114 -36 59 -65 110 -65 113 0 2 30 53 66 112 36 59 68 114 71 121 4 11 -9 14 -59 14 l-64 0 -38 -70 c-20 -39 -42 -68 -47 -65 -4 3 -25 35 -45 70 l-36 65 -59 0 c-37 0 -59 -4 -59 -11z"/>
 <path d="M1020 1694 l0 -236 133 4 c148 3 173 12 203 70 23 45 22 128 -2 170 -28 47 -75 68 -156 68 l-68 0 0 80 0 80 -55 0 -55 0 0 -236z m230 -34 c24 -24 26 -57 3 -82 -12 -13 -30 -18 -70 -18 l-53 0 0 60 0 60 50 0 c37 0 55 -5 70 -20z"/>
 <path d="M2360 1694 l0 -236 133 4 c154 4 186 16 227 89 22 38 25 56 25 139 0 113 -24 175 -83 215 -34 23 -45 25 -169 25 l-133 0 0 -236z m230 136 c51 -27 66 -181 23 -238 -17 -23 -28 -27 -82 -30 l-61 -3 0 141 0 140 51 0 c28 0 59 -4 69 -10z"/>
 <path d="M3280 1695 l0 -235 133 0 c159 0 203 15 231 75 24 50 17 117 -15 151 -17 19 -20 27 -11 33 18 11 32 68 32 128 0 28 5 55 10 58 25 15 5 25 -49 25 -68 0 -71 -3 -71 -90 0 -71 -12 -82 -91 -88 l-59 -4 0 91 0 91 -55 0 -55 0 0 -235z m240 -38 c16 -8 26 -23 28 -40 5 -46 -12 -57 -89 -57 l-69 0 0 55 0 55 53 0 c28 0 63 -6 77 -13z"/>
 <path d="M2423 1223 c-89 -7 -84 -25 17 -63 l90 -33 49 -77 c62 -98 89 -108 120 -45 11 23 24 56 27 73 4 18 11 32 16 32 5 0 7 4 3 10 -3 5 -12 7 -19 4 -8 -3 -16 5 -20 23 -16 75 -75 90 -283 76z"/>
 <path d="M3945 1060 c-38 -38 -73 -70 -77 -70 -13 0 -9 58 5 63 16 7 -77 -2 -135 -13 -35 -7 -53 -6 -74 5 -15 8 -31 12 -36 9 -5 -3 -15 -1 -23 6 -26 22 -217 37 -441 36 -215 -2 -221 -2 -245 -25 -13 -12 -36 -29 -50 -38 -32 -19 -50 -48 -43 -67 4 -10 16 -12 45 -9 26 4 63 -2 108 -16 l68 -21 156 40 156 40 109 -14 c81 -10 124 -22 167 -43 l58 -30 80 34 c44 18 82 31 84 29 3 -3 -7 -20 -21 -39 -14 -19 -26 -47 -26 -63 0 -64 5 -68 123 -109 62 -21 117 -40 122 -41 6 -2 41 21 79 51 66 53 68 55 44 64 -37 14 -83 83 -97 146 -10 43 -55 145 -65 145 -1 0 -33 -31 -71 -70z"/>
 <path d="M4722 1058 c8 -13 28 -45 43 -72 24 -41 30 -46 35 -30 4 10 4 21 1 24 -4 3 -13 19 -20 37 -11 28 -48 63 -67 63 -3 0 0 -10 8 -22z"/>
 <path d="M4482 998 c8 -11 25 -25 39 -30 23 -9 23 -8 -5 21 -34 36 -55 41 -34 9z"/>
 <path d="M4338 374 c-32 -23 -81 -62 -109 -87 l-52 -46 37 -6 c20 -4 39 -11 42 -16 3 -5 9 -7 14 -4 4 3 20 -1 35 -9 15 -8 33 -12 40 -10 7 3 16 1 19 -5 4 -6 13 -8 21 -4 8 3 15 0 15 -6 0 -6 7 -8 15 -5 8 4 15 1 15 -5 0 -6 8 -11 18 -11 10 0 22 -3 26 -7 11 -12 46 -14 46 -2 0 5 -11 20 -25 33 -14 13 -25 26 -25 30 0 4 -9 28 -21 53 -11 25 -28 69 -37 98 l-17 52 -57 -43z"/>
 </g>
<g id="layer2" fill="#a5a5a5" stroke="none">
 <path d="M165 2204 c-22 -24 -32 -44 -21 -44 2 0 16 16 30 35 32 41 26 46 -9 9z"/>
 <path d="M47 1992 l-39 -3 8 -42 c4 -23 8 -55 9 -72 1 -16 9 -59 18 -95 9 -36 19 -87 22 -113 5 -39 10 -47 23 -43 21 7 126 35 172 47 19 5 71 22 115 39 95 36 105 36 128 9 28 -31 31 -17 7 29 -12 23 -19 46 -15 52 3 5 2 10 -4 10 -6 0 -8 6 -5 14 3 8 -3 22 -14 32 -11 11 -23 29 -26 42 -4 12 -11 22 -17 22 -5 0 -23 16 -41 34 l-33 35 -135 3 c-74 2 -152 2 -173 0z"/>
 <path d="M615 1462 c-6 -5 -26 -15 -45 -22 -80 -29 -430 -205 -430 -215 0 -11 13 -32 106 -176 24 -36 47 -74 51 -85 4 -10 12 -24 19 -31 15 -15 22 -8 57 62 19 38 51 72 125 134 84 71 112 88 173 107 41 13 93 24 116 24 48 0 62 14 39 38 -67 72 -86 95 -86 100 0 13 -47 51 -74 62 -33 12 -39 12 -51 2z"/>
 <path d="M4143 1241 c-43 -25 -99 -42 -117 -35 -12 4 -16 0 -16 -15 0 -14 -8 -23 -25 -27 -14 -3 -25 -10 -25 -15 0 -5 -10 -20 -22 -34 -22 -25 -48 -33 -48 -15 0 7 -6 7 -19 0 -29 -15 -50 -12 -28 4 19 15 22 26 6 26 -17 0 -37 -25 -45 -55 -7 -27 -6 -28 27 -23 34 6 35 6 31 -28 -2 -19 0 -34 5 -34 5 0 38 29 73 65 35 36 70 65 77 65 7 0 10 6 8 13 -7 17 35 43 45 28 3 -6 15 -46 25 -89 12 -54 31 -98 63 -147 41 -64 44 -71 31 -94 -8 -13 -39 -43 -70 -67 l-55 -44 -121 42 c-94 32 -123 47 -127 62 -12 43 -5 80 20 113 14 19 24 36 22 39 -3 2 -38 -9 -78 -26 -40 -16 -78 -30 -85 -30 -7 0 -41 13 -76 29 -46 21 -93 32 -162 40 l-99 11 -156 -40 -156 -40 -64 20 c-42 14 -84 20 -125 18 -34 -1 -100 2 -146 6 l-83 9 -49 77 -49 76 -85 33 c-47 18 -85 35 -85 39 0 17 -202 -1 -305 -28 -38 -10 -87 -21 -109 -25 -41 -7 -123 -42 -144 -62 -7 -7 -30 -17 -51 -23 -21 -5 -49 -18 -62 -28 -13 -10 -65 -44 -116 -75 l-92 -57 -75 25 -75 24 -68 -30 c-62 -28 -74 -38 -131 -115 l-63 -85 7 -148 c8 -170 -8 -149 149 -196 100 -30 167 -60 295 -132 14 -8 43 -22 65 -32 22 -10 49 -28 59 -40 11 -11 25 -21 33 -21 7 0 21 -4 31 -9 35 -18 69 -29 122 -39 30 -6 107 -25 170 -42 139 -38 155 -39 445 -17 127 10 356 20 510 24 l280 5 55 -27 c65 -32 118 -46 126 -34 3 5 15 7 27 4 33 -8 207 12 223 26 8 6 17 9 20 6 3 -2 83 38 177 91 164 91 175 95 244 100 68 4 74 6 125 51 69 61 164 131 177 131 6 0 23 -16 38 -35 15 -19 31 -35 35 -35 3 0 20 24 37 54 17 30 48 71 70 92 52 47 73 103 69 179 -3 58 -10 59 -22 3 -11 -48 -23 -30 -29 40 -4 59 -2 69 16 85 l21 18 -30 55 -29 54 -3 -41 c-2 -22 -6 -39 -10 -37 -31 14 -112 72 -112 80 0 6 12 7 30 3 21 -5 39 -2 55 9 l23 15 -64 67 c-35 37 -64 76 -64 86 0 11 -7 18 -19 18 -10 0 -24 7 -32 16 -7 9 -33 29 -58 46 -25 17 -51 37 -57 44 -17 21 -98 24 -131 5z m374 -267 c-10 -10 -37 16 -37 34 0 13 4 12 22 -5 12 -13 19 -25 15 -29z"/>
 <path d="M896 1142 c3 -32 2 -33 -100 -81 -112 -54 -122 -64 -243 -244 l-53 -78 33 -42 c17 -23 38 -46 44 -50 7 -4 27 -21 45 -37 18 -17 36 -30 40 -30 5 0 23 -14 40 -31 18 -17 33 -27 34 -22 1 4 17 70 34 147 l32 138 85 94 85 94 59 0 c73 0 71 13 -7 54 -31 16 -58 35 -61 43 -3 7 -12 13 -20 13 -8 0 -13 8 -11 18 2 11 -3 16 -14 14 -9 -1 -19 5 -21 15 -2 10 -3 3 -1 -15z"/>
 </g>
<g id="layer3" fill="#d5d5d5" stroke="none">
 <path d="M520 1668 c5 -13 25 -56 45 -96 36 -73 37 -92 8 -92 -9 0 -13 -6 -9 -15 3 -8 -2 -19 -12 -24 -25 -15 -9 -13 32 4 34 14 53 31 21 19 -8 -4 -15 -1 -15 5 0 6 7 11 15 11 8 0 15 2 15 4 0 8 -100 206 -105 206 -2 0 0 -10 5 -22z"/>
 <path d="M363 1354 c-29 -13 -53 -26 -53 -28 0 -7 93 33 105 45 12 12 8 11 -52 -17z"/>
 <path d="M780 1258 c-63 -6 -172 -36 -187 -52 -4 -4 1 -4 10 0 10 4 28 2 40 -4 49 -24 117 -50 146 -57 33 -7 52 -26 33 -33 -7 -2 -12 -8 -12 -14 0 -6 8 -4 18 5 12 11 22 13 35 6 20 -12 57 3 38 15 -14 9 -14 43 0 48 7 2 -2 17 -19 34 -16 17 -31 37 -33 45 -3 11 -17 13 -69 7z"/>
 <path d="M505 1134 l-60 -56 63 52 c54 45 69 61 60 60 -2 0 -30 -26 -63 -56z"/>
 <path d="M4036 1154 c-11 -8 -14 -14 -7 -14 7 0 11 -6 8 -12 -6 -19 23 -66 46 -72 13 -3 17 0 13 11 -3 8 -6 22 -6 31 0 15 -2 15 -11 2 -7 -11 -8 -6 -4 19 5 22 4 31 -3 27 -6 -3 -12 0 -14 8 -3 13 -6 13 -22 0z"/>
 <path d="M4503 1133 c-49 -3 -63 -8 -63 -19 0 -19 86 -121 114 -136 16 -8 14 -3 -8 21 -17 17 -24 31 -17 31 7 0 9 5 6 10 -3 6 -1 10 4 10 6 0 11 5 11 10 0 6 -9 10 -20 10 -11 0 -23 7 -26 15 -4 8 -18 16 -33 16 -14 1 1 6 34 11 33 5 64 14 70 19 6 6 6 8 0 7 -6 -1 -38 -3 -72 -5z"/>
 <path d="M775 1061 c-44 -21 -87 -47 -95 -57 -14 -18 -14 -18 5 -2 11 9 55 32 98 52 42 19 77 38 77 41 0 7 7 9 -85 -34z"/>
 <path d="M4075 1035 c13 -62 18 -75 27 -75 5 0 7 -8 4 -18 -8 -23 63 -102 90 -101 18 0 18 1 -1 9 -11 5 -14 9 -8 9 7 1 -7 31 -32 70 -25 38 -45 77 -45 85 0 9 -6 16 -14 16 -8 0 -17 6 -20 13 -3 6 -4 3 -1 -8z"/>
 <path d="M1040 975 c25 -14 67 -37 93 -51 40 -20 48 -29 44 -46 -6 -20 -6 -20 13 -1 10 11 43 30 74 43 31 12 54 25 51 29 -2 4 -37 14 -77 21 -40 7 -77 17 -82 22 -6 4 -44 8 -85 8 l-76 0 45 -25z"/>
 <path d="M4548 946 c-22 -16 -23 -32 -4 -39 10 -4 12 0 9 14 -3 10 0 19 6 19 6 0 11 -16 11 -36 0 -30 -3 -35 -17 -30 -17 7 -17 6 -1 -10 22 -22 26 -18 28 31 3 72 0 76 -32 51z"/>
 <path d="M4458 928 c20 -24 70 -49 77 -38 3 5 1 10 -4 10 -6 0 -11 7 -11 15 0 9 -6 12 -15 9 -8 -4 -15 -1 -15 5 0 6 -10 11 -21 11 -16 0 -19 -3 -11 -12z"/>
 <path d="M1073 525 c0 -44 2 -61 4 -37 2 23 2 59 0 80 -2 20 -4 1 -4 -43z"/>
 </g>
<g id="layer4" fill="#f5f5f5" stroke="none">
 <path d="M382 1705 c-51 -18 -126 -41 -165 -50 -107 -26 -139 -41 -133 -62 3 -10 8 -45 12 -78 3 -33 9 -73 11 -90 3 -16 5 -45 5 -62 0 -18 4 -33 9 -33 5 0 9 -17 9 -38 0 -21 3 -41 6 -44 3 -3 85 34 183 83 98 49 181 89 184 89 2 0 30 12 62 26 37 17 53 29 45 34 -7 4 -10 15 -7 24 4 9 2 16 -3 16 -6 0 -34 50 -62 110 -29 61 -55 110 -58 109 -3 0 -47 -16 -98 -34z"/>
 <path d="M619 1209 c-14 -3 -69 -43 -122 -88 -77 -67 -101 -94 -126 -146 l-32 -64 71 -69 c38 -39 70 -75 70 -82 0 -26 24 1 113 125 l93 130 105 53 c57 28 94 50 82 46 -13 -3 -23 -1 -23 5 0 6 -3 10 -7 9 -5 -1 -21 4 -36 10 -16 7 -32 12 -36 12 -15 0 -100 40 -113 53 -8 9 -23 11 -39 6z"/>
 <path d="M4575 1131 c-6 -5 -35 -12 -65 -16 -30 -3 -56 -8 -59 -11 -2 -2 21 -30 53 -61 36 -36 72 -86 101 -142 45 -86 45 -86 24 -102 -19 -14 -20 -21 -13 -85 6 -53 9 -63 15 -44 4 14 8 45 9 70 1 25 4 36 7 25 9 -35 18 -35 37 0 11 19 25 35 33 35 7 0 13 6 13 13 0 7 11 24 25 39 14 15 25 34 25 43 0 8 5 15 11 15 12 0 -44 103 -74 137 -12 13 -17 29 -13 39 5 14 4 15 -9 4 -12 -10 -22 -7 -57 19 -46 34 -50 35 -63 22z m-71 -47 c4 -9 4 -19 1 -22 -6 -6 -35 18 -35 29 0 16 28 10 34 -7z"/>
 <path d="M4070 1118 c-8 -33 5 -88 21 -88 5 0 9 1 9 3 -1 11 -29 90 -30 85z"/>
 <path d="M920 932 c-35 -37 -74 -79 -87 -93 -17 -18 -33 -64 -57 -164 -41 -167 -43 -164 72 -174 6 0 12 -7 12 -14 0 -9 11 -12 34 -9 18 2 37 -1 40 -7 4 -6 20 -11 36 -11 15 0 30 -5 32 -10 2 -6 21 -13 42 -17 33 -5 38 -4 33 10 -3 9 -7 75 -8 147 l-2 131 39 54 c21 30 49 69 62 87 l22 32 -62 33 c-35 18 -67 39 -73 46 -5 8 -24 16 -41 20 -29 6 -37 1 -94 -61z"/>
 <path d="M4553 929 c-4 -13 -8 -17 -13 -9 -4 6 -20 10 -36 8 l-29 -3 48 -33 47 -33 0 46 c0 47 -8 59 -17 24z"/>
 <path d="M4410 404 c0 -16 39 -127 48 -136 4 -4 7 15 7 43 0 40 -6 54 -28 76 -15 15 -27 23 -27 17z"/>
 </g>

</svg>